<svg width="475" height="282" viewBox="0 0 475 282" fill="none" xmlns="http://www.w3.org/2000/svg">
<g id="Group 1">
<g id="Manga">
<path d="M94.08 48.96V132H83.16V70.08L55.56 132H47.88L20.16 69.96V132H9.24V48.96H21L51.72 117.6L82.44 48.96H94.08Z" fill="#FFA500"/>
<path d="M108.519 98.88C108.519 92.16 109.879 86.28 112.599 81.24C115.319 76.12 119.039 72.16 123.759 69.36C128.559 66.56 133.879 65.16 139.719 65.16C145.479 65.16 150.479 66.4 154.719 68.88C158.959 71.36 162.119 74.48 164.199 78.24V66.24H175.239V132H164.199V119.76C162.039 123.6 158.799 126.8 154.479 129.36C150.239 131.84 145.279 133.08 139.599 133.08C133.759 133.08 128.479 131.64 123.759 128.76C119.039 125.88 115.319 121.84 112.599 116.64C109.879 111.44 108.519 105.52 108.519 98.88ZM164.199 99C164.199 94.04 163.199 89.72 161.199 86.04C159.199 82.36 156.479 79.56 153.039 77.64C149.679 75.64 145.959 74.64 141.879 74.64C137.799 74.64 134.079 75.6 130.719 77.52C127.359 79.44 124.679 82.24 122.679 85.92C120.679 89.6 119.679 93.92 119.679 98.88C119.679 103.92 120.679 108.32 122.679 112.08C124.679 115.76 127.359 118.6 130.719 120.6C134.079 122.52 137.799 123.48 141.879 123.48C145.959 123.48 149.679 122.52 153.039 120.6C156.479 118.6 159.199 115.76 161.199 112.08C163.199 108.32 164.199 103.96 164.199 99ZM225.733 65.04C233.733 65.04 240.213 67.48 245.173 72.36C250.133 77.16 252.613 84.12 252.613 93.24V132H241.813V94.8C241.813 88.24 240.173 83.24 236.893 79.8C233.613 76.28 229.133 74.52 223.453 74.52C217.693 74.52 213.093 76.32 209.653 79.92C206.293 83.52 204.613 88.76 204.613 95.64V132H193.693V66.24H204.613V75.6C206.773 72.24 209.693 69.64 213.373 67.8C217.133 65.96 221.253 65.04 225.733 65.04ZM297.571 65.16C303.251 65.16 308.211 66.4 312.451 68.88C316.771 71.36 319.971 74.48 322.051 78.24V66.24H333.091V133.44C333.091 139.44 331.811 144.76 329.251 149.4C326.691 154.12 323.011 157.8 318.211 160.44C313.491 163.08 307.971 164.4 301.651 164.4C293.011 164.4 285.811 162.36 280.051 158.28C274.291 154.2 270.891 148.64 269.851 141.6H280.651C281.851 145.6 284.331 148.8 288.091 151.2C291.851 153.68 296.371 154.92 301.651 154.92C307.651 154.92 312.531 153.04 316.291 149.28C320.131 145.52 322.051 140.24 322.051 133.44V119.64C319.891 123.48 316.691 126.68 312.451 129.24C308.211 131.8 303.251 133.08 297.571 133.08C291.731 133.08 286.411 131.64 281.611 128.76C276.891 125.88 273.171 121.84 270.451 116.64C267.731 111.44 266.371 105.52 266.371 98.88C266.371 92.16 267.731 86.28 270.451 81.24C273.171 76.12 276.891 72.16 281.611 69.36C286.411 66.56 291.731 65.16 297.571 65.16ZM322.051 99C322.051 94.04 321.051 89.72 319.051 86.04C317.051 82.36 314.331 79.56 310.891 77.64C307.531 75.64 303.811 74.64 299.731 74.64C295.651 74.64 291.931 75.6 288.571 77.52C285.211 79.44 282.531 82.24 280.531 85.92C278.531 89.6 277.531 93.92 277.531 98.88C277.531 103.92 278.531 108.32 280.531 112.08C282.531 115.76 285.211 118.6 288.571 120.6C291.931 122.52 295.651 123.48 299.731 123.48C303.811 123.48 307.531 122.52 310.891 120.6C314.331 118.6 317.051 115.76 319.051 112.08C321.051 108.32 322.051 103.96 322.051 99ZM347.465 98.88C347.465 92.16 348.825 86.28 351.545 81.24C354.265 76.12 357.985 72.16 362.705 69.36C367.505 66.56 372.825 65.16 378.665 65.16C384.425 65.16 389.425 66.4 393.665 68.88C397.905 71.36 401.065 74.48 403.145 78.24V66.24H414.185V132H403.145V119.76C400.985 123.6 397.745 126.8 393.425 129.36C389.185 131.84 384.225 133.08 378.545 133.08C372.705 133.08 367.425 131.64 362.705 128.76C357.985 125.88 354.265 121.84 351.545 116.64C348.825 111.44 347.465 105.52 347.465 98.88ZM403.145 99C403.145 94.04 402.145 89.72 400.145 86.04C398.145 82.36 395.425 79.56 391.985 77.64C388.625 75.64 384.905 74.64 380.825 74.64C376.745 74.64 373.025 75.6 369.665 77.52C366.305 79.44 363.625 82.24 361.625 85.92C359.625 89.6 358.625 93.92 358.625 98.88C358.625 103.92 359.625 108.32 361.625 112.08C363.625 115.76 366.305 118.6 369.665 120.6C373.025 122.52 376.745 123.48 380.825 123.48C384.905 123.48 388.625 122.52 391.985 120.6C395.425 118.6 398.145 115.76 400.145 112.08C402.145 108.32 403.145 103.96 403.145 99Z" fill="black"/>
</g>
<g id="Kure">
<path d="M233.28 234L204.96 196.8V234H184.44V149.76H204.96V186.72L233.04 149.76H257.16L224.52 191.04L258.36 234H233.28Z" fill="#FFA500"/>
<path d="M328.232 168.24V234H317.312V224.28C315.232 227.64 312.312 230.28 308.552 232.2C304.872 234.04 300.792 234.96 296.312 234.96C291.192 234.96 286.592 233.92 282.512 231.84C278.432 229.68 275.192 226.48 272.792 222.24C270.472 218 269.312 212.84 269.312 206.76V168.24H280.112V205.32C280.112 211.8 281.752 216.8 285.032 220.32C288.312 223.76 292.792 225.48 298.472 225.48C304.312 225.48 308.912 223.68 312.272 220.08C315.632 216.48 317.312 211.24 317.312 204.36V168.24H328.232ZM357.59 178.92C359.51 175.16 362.23 172.24 365.75 170.16C369.35 168.08 373.71 167.04 378.83 167.04V178.32H375.95C363.71 178.32 357.59 184.96 357.59 198.24V234H346.67V168.24H357.59V178.92ZM451.435 198.6C451.435 200.68 451.315 202.88 451.075 205.2H398.515C398.915 211.68 401.115 216.76 405.115 220.44C409.195 224.04 414.115 225.84 419.875 225.84C424.595 225.84 428.515 224.76 431.635 222.6C434.835 220.36 437.075 217.4 438.355 213.72H450.115C448.355 220.04 444.835 225.2 439.555 229.2C434.275 233.12 427.715 235.08 419.875 235.08C413.635 235.08 408.035 233.68 403.075 230.88C398.195 228.08 394.355 224.12 391.555 219C388.755 213.8 387.355 207.8 387.355 201C387.355 194.2 388.715 188.24 391.435 183.12C394.155 178 397.955 174.08 402.835 171.36C407.795 168.56 413.475 167.16 419.875 167.16C426.115 167.16 431.635 168.52 436.435 171.24C441.235 173.96 444.915 177.72 447.475 182.52C450.115 187.24 451.435 192.6 451.435 198.6ZM440.155 196.32C440.155 192.16 439.235 188.6 437.395 185.64C435.555 182.6 433.035 180.32 429.835 178.8C426.715 177.2 423.235 176.4 419.395 176.4C413.875 176.4 409.155 178.16 405.235 181.68C401.395 185.2 399.195 190.08 398.635 196.32H440.155Z" fill="black"/>
</g>
</g>
</svg>
